<?xml version="1.0" encoding="UTF-8" standalone="no"?>
<!-- Created with Inkscape (http://www.inkscape.org/) -->

<svg
   xmlns:dc="http://purl.org/dc/elements/1.1/"
   xmlns:cc="http://creativecommons.org/ns#"
   xmlns:rdf="http://www.w3.org/1999/02/22-rdf-syntax-ns#"
   xmlns:svg="http://www.w3.org/2000/svg"
   xmlns="http://www.w3.org/2000/svg"
   xmlns:sodipodi="http://sodipodi.sourceforge.net/DTD/sodipodi-0.dtd"
   xmlns:inkscape="http://www.inkscape.org/namespaces/inkscape"
   width="210mm"
   height="199mm"
   viewBox="0 0 210 199"
   version="1.1"
   id="svg8"
   inkscape:version="0.92.3 (2405546, 2018-03-11)"
   sodipodi:docname="app_icon.svg">
  <defs
     id="defs2">
    <clipPath
       id="p57b985e660">
      <rect
         id="rect4569"
         height="332.64001"
         width="332.64001"
         y="7.1999998"
         x="7.1999998" />
    </clipPath>
    <clipPath
       id="clipPath4622">
      <rect
         id="rect4620"
         height="332.64001"
         width="332.64001"
         y="7.1999998"
         x="7.1999998" />
    </clipPath>
    <clipPath
       id="clipPath4626">
      <rect
         id="rect4624"
         height="332.64001"
         width="332.64001"
         y="7.1999998"
         x="7.1999998" />
    </clipPath>
    <clipPath
       id="clipPath4630">
      <rect
         id="rect4628"
         height="332.64001"
         width="332.64001"
         y="7.1999998"
         x="7.1999998" />
    </clipPath>
    <clipPath
       id="clipPath4634">
      <rect
         id="rect4632"
         height="332.64001"
         width="332.64001"
         y="7.1999998"
         x="7.1999998" />
    </clipPath>
    <path
       d="M 0,3 C 0.795609,3 1.55874,2.683901 2.12132,2.12132 2.683901,1.55874 3,0.795609 3,0 3,-0.795609 2.683901,-1.55874 2.12132,-2.12132 1.55874,-2.683901 0.795609,-3 0,-3 -0.795609,-3 -1.55874,-2.683901 -2.12132,-2.12132 -2.683901,-1.55874 -3,-0.795609 -3,0 -3,0.795609 -2.683901,1.55874 -2.12132,2.12132 -1.55874,2.683901 -0.795609,3 0,3 Z"
       id="path4592"
       inkscape:connector-curvature="0"
       style="stroke-linecap:butt;stroke-linejoin:round" />
  </defs>
  <sodipodi:namedview
     id="base"
     pagecolor="#ffffff"
     bordercolor="#666666"
     borderopacity="1.0"
     inkscape:pageopacity="0.0"
     inkscape:pageshadow="2"
     inkscape:zoom="0.49497475"
     inkscape:cx="194.87781"
     inkscape:cy="569.17285"
     inkscape:document-units="mm"
     inkscape:current-layer="layer1"
     showgrid="false"
     inkscape:window-width="1571"
     inkscape:window-height="1050"
     inkscape:window-x="1252"
     inkscape:window-y="583"
     inkscape:window-maximized="0" />
  <metadata
     id="metadata5">
    <rdf:RDF>
      <cc:Work
         rdf:about="">
        <dc:format>image/svg+xml</dc:format>
        <dc:type
           rdf:resource="http://purl.org/dc/dcmitype/StillImage" />
        <dc:title></dc:title>
      </cc:Work>
    </rdf:RDF>
  </metadata>
  <g
     inkscape:label="Layer 1"
     inkscape:groupmode="layer"
     id="layer1"
     transform="translate(0,-98)">
    <g
       transform="matrix(0.62961841,0,0,0.5141504,-3.4180518,120.51882)"
       id="axes_1"
       style="stroke-linecap:butt;stroke-linejoin:round">
      <g
         id="patch_2"
         style="stroke-linecap:butt;stroke-linejoin:round">
        <path
           id="path4547"
           style="fill:none;stroke:#000000;stroke-width:14.17322826;stroke-linecap:butt;stroke-linejoin:miter;stroke-miterlimit:4;stroke-dasharray:none"
           clip-path="url(#p57b985e660)"
           d="M 173.52,324.72 22.32,22.32 h 302.4 z"
           inkscape:connector-curvature="0" />
      </g>
      <g
         id="line2d_1"
         style="stroke-linecap:butt;stroke-linejoin:round">
        <path
           id="path4550"
           style="fill:none;stroke:#000000;stroke-width:14.17322826;stroke-linecap:square;stroke-linejoin:round;stroke-miterlimit:4;stroke-dasharray:none"
           clip-path="url(#p57b985e660)"
           d="m 173.52,123.12 v 201.6"
           inkscape:connector-curvature="0" />
      </g>
      <g
         id="line2d_2"
         style="stroke-linecap:butt;stroke-linejoin:round">
        <path
           id="path4553"
           style="fill:none;stroke:#000000;stroke-width:14.17322826;stroke-linecap:square;stroke-linejoin:round;stroke-miterlimit:4;stroke-dasharray:none"
           clip-path="url(#p57b985e660)"
           d="M 173.52,123.12 22.32,22.32"
           inkscape:connector-curvature="0" />
      </g>
      <g
         id="line2d_3"
         style="stroke-linecap:butt;stroke-linejoin:round">
        <path
           id="path4556"
           style="fill:none;stroke:#000000;stroke-width:14.17322826;stroke-linecap:square;stroke-linejoin:round;stroke-miterlimit:4;stroke-dasharray:none"
           clip-path="url(#p57b985e660)"
           d="M 173.52,123.12 324.72,22.32"
           inkscape:connector-curvature="0" />
      </g>
      <g
         id="line2d_4"
         style="stroke-linecap:butt;stroke-linejoin:round">
        <defs
           id="defs4560">
          <path
             d="M 0,3 C 0.795609,3 1.55874,2.683901 2.12132,2.12132 2.683901,1.55874 3,0.795609 3,0 3,-0.795609 2.683901,-1.55874 2.12132,-2.12132 1.55874,-2.683901 0.795609,-3 0,-3 -0.795609,-3 -1.55874,-2.683901 -2.12132,-2.12132 -2.683901,-1.55874 -3,-0.795609 -3,0 -3,0.795609 -2.683901,1.55874 -2.12132,2.12132 -1.55874,2.683901 -0.795609,3 0,3 Z"
             id="path876"
             inkscape:connector-curvature="0"
             style="stroke-linecap:butt;stroke-linejoin:round" />
        </defs>
        <g
           id="g4564"
           clip-path="url(#p57b985e660)"
           style="stroke-linecap:butt;stroke-linejoin:round">
          <path
             inkscape:connector-curvature="0"
             id="use4562"
             d="m 173.52,123.91375 c 0.21051,0 0.41242,-0.0836 0.56127,-0.23248 0.14885,-0.14885 0.23248,-0.35076 0.23248,-0.56127 0,-0.2105 -0.0836,-0.41241 -0.23248,-0.56126 -0.14885,-0.14885 -0.35076,-0.23249 -0.56127,-0.23249 -0.2105,0 -0.41241,0.0836 -0.56126,0.23249 -0.14885,0.14885 -0.23249,0.35076 -0.23249,0.56126 0,0.21051 0.0836,0.41242 0.23249,0.56127 0.14885,0.14885 0.35076,0.23248 0.56126,0.23248 z"
             style="fill:#ff0000;stroke-width:0.26458332;stroke-linecap:butt;stroke-linejoin:round" />
        </g>
      </g>
    </g>
  </g>
</svg>
